<svg width="100%" height="100%" viewBox="0 0 30 30" version="1.1" xmlns="http://www.w3.org/2000/svg" xmlns:xlink="http://www.w3.org/1999/xlink" xml:space="preserve" xmlns:serif="http://www.serif.com/"><path d="M13.937,15.134c0.346,-0.076 0.701,-0.116 1.063,-0.116c0.428,0 0.848,0.056 1.255,0.163l0.024,0.006l0.043,0.012l0.042,0.012l0.043,0.012c0.043,0.013 0.043,0.013 0.085,0.026l0.043,0.014l0.042,0.014c3.099,1.032 5.424,5.044 5.477,9.86c-1.994,1.411 -4.429,2.23 -7.054,2.23c-2.625,0 -5.06,-0.819 -7.054,-2.23l0,-0.065c0.078,-5.005 2.608,-9.129 5.904,-9.918l0.044,-0.01l0.043,-0.01Zm-5.991,10.003c-3.215,-2.222 -5.313,-5.936 -5.313,-10.137c-0,-6.826 5.541,-12.367 12.367,-12.367c6.826,-0 12.367,5.541 12.367,12.367c0,4.201 -2.098,7.915 -5.313,10.137c-0.053,-4.816 -2.378,-8.828 -5.477,-9.86l-0.042,-0.014c-0.057,-0.019 -0.114,-0.036 -0.171,-0.052c-0.017,-0.005 -0.033,-0.01 -0.05,-0.014l-0.035,-0.01l-0.024,-0.006c-0.407,-0.107 -0.827,-0.163 -1.255,-0.163c-0.362,0 -0.717,0.04 -1.063,0.116l-0.043,0.01l-0.044,0.01c-3.31,0.793 -5.848,4.949 -5.904,9.983Zm7.054,-18.119c2.198,0 3.982,1.784 3.982,3.982c-0,2.198 -1.784,3.982 -3.982,3.982c-2.198,-0 -3.982,-1.784 -3.982,-3.982c0,-2.198 1.784,-3.982 3.982,-3.982Z" style="fill:none;stroke:#000;stroke-width:1.5px;"/></svg>